<?xml version="1.0" encoding="UTF-8" standalone="no"?>
<!-- Created with Inkscape (http://www.inkscape.org/) -->

<svg
   width="64"
   height="64"
   viewBox="0 0 16.933333 16.933333"
   version="1.1"
   id="svg1"
   xmlns="http://www.w3.org/2000/svg"
   xmlns:svg="http://www.w3.org/2000/svg">
  <defs
     id="defs1" />
  <g
     id="layer1">
    <path
       id="path62-2"
       style="display:inline;fill:#022135;fill-opacity:1;stroke:none;stroke-width:0.0237786"
       d="m 8.8709206,13.83212 c -0.041427,0 -0.078952,-0.009 -0.1125768,-0.02712 -0.033717,-0.01802 -0.06019,-0.0431 -0.07951,-0.07505 -0.019135,-0.03214 -0.028609,-0.06846 -0.028609,-0.108862 0,-0.04031 0.00947,-0.07654 0.028609,-0.10849 0.01932,-0.03214 0.045792,-0.05722 0.07951,-0.07505 0.033625,-0.01802 0.071429,-0.02712 0.1133196,-0.02712 0.03539,0 0.067342,0.0062 0.095858,0.01858 0.028423,0.01245 0.05248,0.03028 0.072079,0.0535 l -0.060933,0.0561 c -0.027493,-0.03195 -0.061582,-0.04793 -0.1021736,-0.04793 -0.025264,0 -0.047836,0.0056 -0.06762,0.01672 -0.019877,0.01096 -0.035296,0.02629 -0.046443,0.04607 -0.011146,0.01988 -0.01672,0.04236 -0.01672,0.06762 0,0.02527 0.00557,0.04784 0.01672,0.06762 0.011147,0.01988 0.026565,0.0353 0.046443,0.04644 0.019784,0.01096 0.042356,0.01635 0.06762,0.01635 0.040591,0 0.07468,-0.01607 0.1021736,-0.0483 l 0.060933,0.0561 c -0.019599,0.02359 -0.043749,0.04161 -0.07245,0.05424 -0.028794,0.01235 -0.06084,0.01858 -0.096229,0.01858 z m 0,0 M 8.2582548,13.417109 h 0.094372 v 0.331042 h 0.2047187 v 0.07691 H 8.2582548 Z m 0,0 m -0.4245958,0 h 0.094372 v 0.331042 H 8.13275 v 0.07691 H 7.833659 Z m 0,0" />
    <path
       id="path29-3-4"
       style="baseline-shift:baseline;display:inline;overflow:visible;vector-effect:none;fill:#022135;stroke-width:0.067404;stroke-linecap:round;enable-background:accumulate;stop-color:#000000"
       d="m 7.7329028,14.142993 a 0.02426803,0.02426803 0 0 0 -0.024355,0.02422 0.02426803,0.02426803 0 0 0 0.024355,0.02435 h 1.4074531 a 0.02426803,0.02426803 0 0 0 0.024223,-0.02435 0.02426803,0.02426803 0 0 0 -0.024223,-0.02422 z M 7.4901555,13.869966 a 0.02426803,0.02426803 0 0 0 -0.024243,0.02435 0.02426803,0.02426803 0 0 0 0.024243,0.02421 h 0.2226454 v -0.04856 z m 1.6702625,0 v 0.04856 h 0.2226805 a 0.02426803,0.02426803 0 0 0 0.024243,-0.02421 0.02426803,0.02426803 0 0 0 -0.024243,-0.02435 z M 7.0048765,13.32387 a 0.02426803,0.02426803 0 0 0 -0.024348,0.02435 0.02426803,0.02426803 0 0 0 0.024348,0.02424 h 0.7079244 v -0.04859 z m 2.1555415,0 v 0.04859 h 0.7079595 a 0.02426803,0.02426803 0 0 0 0.024208,-0.02424 0.02426803,0.02426803 0 0 0 -0.024208,-0.02435 z M 6.7621278,13.050969 a 0.02426803,0.02426803 0 0 0 -0.024223,0.02422 0.02426803,0.02426803 0 0 0 0.024223,0.02422 h 3.3490032 a 0.02426803,0.02426803 0 0 0 0.02422,-0.02422 0.02426803,0.02426803 0 0 0 -0.02422,-0.02422 z m 0.4852486,0.546088 a 0.02426803,0.02426803 0 0 0 -0.024208,0.02421 0.02426803,0.02426803 0 0 0 0.024208,0.02424 h 0.4654245 v -0.04845 z m 1.9130416,0 v 0.04845 h 0.46532 a 0.02426803,0.02426803 0 0 0 0.024348,-0.02424 0.02426803,0.02426803 0 0 0 -0.024348,-0.02421 z" />
    <path
       id="path55-5"
       style="display:inline;fill:#022135;fill-opacity:1;stroke:none;stroke-width:0.0237786"
       d="m 12.011439,12.711727 c -0.08425,0 -0.165615,-0.01142 -0.244103,-0.03418 -0.07858,-0.02276 -0.141557,-0.05239 -0.189114,-0.0888 l 0.0836,-0.18577 c 0.04551,0.03344 0.09967,0.06037 0.162364,0.08062 0.06288,0.02034 0.125767,0.03047 0.188743,0.03047 0.07004,0 0.121865,-0.0104 0.155304,-0.03121 0.03344,-0.02081 0.05016,-0.04839 0.05016,-0.08285 0,-0.02526 -0.0099,-0.04616 -0.02972,-0.06279 -0.01988,-0.01681 -0.04523,-0.03028 -0.07617,-0.0405 -0.03102,-0.01013 -0.07273,-0.02127 -0.125209,-0.03344 -0.08127,-0.01932 -0.14778,-0.03864 -0.199517,-0.05796 -0.05155,-0.01932 -0.09586,-0.05016 -0.133012,-0.09251 -0.03697,-0.04254 -0.05536,-0.09939 -0.05536,-0.170537 0,-0.06186 0.01672,-0.117871 0.05016,-0.167937 0.03344,-0.05025 0.08378,-0.09001 0.151218,-0.119265 0.06734,-0.02944 0.14973,-0.04421 0.247074,-0.04421 0.06808,0 0.134498,0.0082 0.199146,0.02452 0.06483,0.01616 0.12168,0.03938 0.170538,0.06985 l -0.07617,0.186886 c -0.09836,-0.05573 -0.196731,-0.0836 -0.295004,-0.0836 -0.06892,0 -0.119822,0.01115 -0.152703,0.03344 -0.03298,0.02229 -0.04941,0.05164 -0.04941,0.08806 0,0.03669 0.01895,0.06391 0.05685,0.08174 0.03808,0.01765 0.09623,0.03493 0.174253,0.05202 0.081,0.01932 0.147316,0.03864 0.199145,0.05796 0.05174,0.01932 0.09604,0.04979 0.133012,0.0914 0.03715,0.04143 0.05573,0.09762 0.05573,0.16868 0,0.06093 -0.017,0.116571 -0.0509,0.166822 -0.034,0.05007 -0.08499,0.08982 -0.153075,0.119264 -0.0679,0.02917 -0.150474,0.04384 -0.247817,0.04384 z m 0,0 m -0.979256,-0.01821 -0.20509,-0.29649 h -0.226641 v 0.29649 h -0.246331 v -1.064465 h 0.460711 c 0.09437,0 0.176203,0.01579 0.245588,0.04719 0.06929,0.03149 0.122702,0.07607 0.160135,0.133754 0.03762,0.05777 0.05647,0.126231 0.05647,0.205462 0,0.07905 -0.01914,0.14713 -0.05722,0.204348 -0.0379,0.05722 -0.09177,0.101059 -0.16162,0.131526 l 0.238529,0.342189 z m -0.0045,-0.678063 c 0,-0.05991 -0.01932,-0.105889 -0.05796,-0.137841 -0.03845,-0.03195 -0.09465,-0.04793 -0.168679,-0.04793 h -0.200632 v 0.37117 h 0.200632 c 0.07403,0 0.130225,-0.01616 0.168679,-0.04867 0.03864,-0.03242 0.05796,-0.07802 0.05796,-0.136727 z m 0,0 M 9.6652866,11.629056 h 0.2463319 v 1.064465 H 9.6652866 Z m 0,0 M 9.0115502,12.465395 H 8.5170288 l -0.094,0.228126 H 8.1703809 l 0.474458,-1.064465 h 0.2433594 l 0.4759442,1.064465 H 9.1055498 Z M 8.9338982,12.27851 8.7652184,11.870929 8.5961672,12.27851 Z m 0,0 M 7.5364553,11.629056 c 0.094372,0 0.1762034,0.01579 0.2455891,0.04719 0.069292,0.03149 0.1227008,0.07607 0.1601336,0.133754 0.037619,0.05777 0.056474,0.126231 0.056474,0.205462 0,0.07802 -0.018855,0.146202 -0.056474,0.204348 -0.037433,0.05824 -0.090842,0.102824 -0.1601336,0.133755 -0.069386,0.03102 -0.1512175,0.04644 -0.2455891,0.04644 H 7.3220762 v 0.293518 H 7.0757443 v -1.064465 z m -0.013746,0.570315 c 0.074029,0 0.1302245,-0.01598 0.1686791,-0.04793 0.038641,-0.03195 0.057961,-0.07728 0.057961,-0.135984 0,-0.05991 -0.01932,-0.105889 -0.057961,-0.137841 -0.038455,-0.03195 -0.09465,-0.04793 -0.1686791,-0.04793 H 7.3220762 v 0.369683 z m 0,0 m -0.8332696,0.29649 v 0.19766 H 5.8653587 V 11.629056 H 6.669745 v 0.19766 H 6.1102039 v 0.231098 h 0.4941494 v 0.191715 H 6.1102039 v 0.246332 z m 0,0 m -1.4537131,0.19766 -0.2050907,-0.29649 H 4.8039956 v 0.29649 H 4.5576638 v -1.064465 h 0.4607109 c 0.094372,0 0.1762034,0.01579 0.2455891,0.04719 0.069292,0.03149 0.1227015,0.07607 0.1601343,0.133754 0.037618,0.05777 0.056474,0.126231 0.056474,0.205462 0,0.07905 -0.019134,0.14713 -0.057217,0.204348 -0.037897,0.05722 -0.09177,0.101059 -0.1616205,0.131526 l 0.2385292,0.342189 z m -0.00446,-0.678063 c 0,-0.05991 -0.019321,-0.105889 -0.057961,-0.137841 -0.038454,-0.03195 -0.09465,-0.04793 -0.1686798,-0.04793 h -0.200632 v 0.37117 h 0.200632 c 0.07403,0 0.1302259,-0.01616 0.1686798,-0.04867 0.03864,-0.03242 0.057961,-0.07802 0.057961,-0.136727 z m 0,0" />
    <path
       id="path41-5"
       style="display:inline;fill:#022135;fill-opacity:1;stroke:none;stroke-width:0.0237786"
       d="M 16.287241,9.8186804 V 10.239265 H 14.533567 V 7.9743508 h 1.71169 v 0.4205845 h -1.190789 v 0.4919201 h 1.051461 v 0.4075811 h -1.051461 v 0.5242439 z m 0,0 M 13.844398,7.9743508 V 10.239265 H 13.414154 L 12.284669,8.8641915 V 10.239265 H 11.767113 V 7.9743508 h 0.433588 L 13.326842,9.349424 V 7.9743508 Z m 0,0 m -3.290645,0 h 0.524245 v 2.2649142 h -0.524245 z m 0,0 m -2.1063889,0 H 8.9716087 V 9.8119926 H 10.10741 V 10.239265 H 8.4473641 Z m 0,0 m -2.8246945,0 h 1.0287977 c 0.2459598,0 0.4633114,0.047 0.652054,0.140814 0.1887432,0.093628 0.3353159,0.2257112 0.4399046,0.3960631 0.1047748,0.1704444 0.1571618,0.3689397 0.1571618,0.5955802 0,0.2264544 -0.052387,0.4248567 -0.1571618,0.5952088 -0.1045887,0.1704444 -0.2511614,0.3026201 -0.4399046,0.3964341 -0.1887426,0.09391 -0.4060942,0.140814 -0.652054,0.140814 H 5.6226696 Z m 1.0031606,1.8346699 c 0.2263621,0 0.4069306,-0.062976 0.5417069,-0.1891147 0.134963,-0.1263238 0.2024903,-0.2973256 0.2024903,-0.5130979 0,-0.21568 -0.067527,-0.3865888 -0.2024903,-0.5127266 C 7.0327608,8.467757 6.8521923,8.4045954 6.6258302,8.4045954 H 6.1469141 v 1.4044253 z m 0,0 m -1.5726616,0.00966 V 10.239265 H 3.299495 V 7.9743508 H 5.0111847 V 8.3949353 H 3.820395 V 8.8868554 H 4.8718566 V 9.2944365 H 3.820395 v 0.5242439 z m 0,0 M 2.2123059,10.239265 1.7753737,9.6083881 H 1.2934852 V 10.239265 H 0.76924059 V 7.9743508 H 1.7497373 c 0.200632,0 0.3746994,0.033439 0.5223869,0.1003161 0.1478736,0.066877 0.2616575,0.1618062 0.3414463,0.2846004 0.079696,0.1228872 0.119636,0.268531 0.119636,0.4369325 0,0.1682153 -0.040498,0.3132087 -0.1214936,0.4350744 C 2.5309029,9.35314 2.4160964,9.4463967 2.267294,9.5110446 l 0.5078964,0.7282204 z m -0.00966,-1.4430652 c 0,-0.1272527 -0.041055,-0.2248752 -0.1229806,-0.2927746 C 1.9976485,8.4353403 1.8779194,8.4012515 1.7203856,8.4012515 H 1.2934852 v 0.7895244 h 0.4269004 c 0.1575338,0 0.2772629,-0.034367 0.35928,-0.1032878 0.081926,-0.069107 0.1229806,-0.1661717 0.1229803,-0.2912883 z m 0,0" />
    <path
       style="display:inline;fill:none;stroke:#022135;stroke-width:0.0356774;stroke-dasharray:none;stroke-opacity:1"
       id="path22-1"
       d="M 15.02864,11.252298 A 7.1197317,7.0834442 34.934003 0 1 8.4562139,15.590992 7.1197317,7.0834442 34.934003 0 1 1.8957927,11.171467" />
    <path
       id="path18-3-7"
       style="fill:#022135;fill-opacity:1;fill-rule:nonzero;stroke:none;stroke-width:0.0237641"
       d="m 0.80138622,11.087282 v 0.17823 H 2.5219719 c 0.3202343,0.673186 0.756917,1.293716 1.2995851,1.836505 1.2480784,1.247985 2.907466,1.935472 4.6725983,1.935472 1.7650387,0 3.4242647,-0.687487 4.6722497,-1.935472 0.542765,-0.542765 0.97946,-1.163317 1.299689,-1.836505 h 1.663113 v -0.17823 z m 2.26927088,0.17823 H 13.917409 c -1.024286,1.951166 -3.07087,3.285114 -5.4232537,3.285114 -2.3524643,0 -4.3991585,-1.333922 -5.4234982,-3.285114 z" />
    <path
       id="rect1-1-2-2-1"
       style="fill:#022135;fill-opacity:1;stroke-width:0.0355756"
       d="M 0.00143713,10.699169 H 16.933333 V 10.8774 H 0.00143713 Z" />
    <path
       id="rect1-1-2-1"
       style="fill:#022135;stroke-width:0.0355756;fill-opacity:1"
       d="M -5.940568e-7,7.3266837 H 16.931894 V 7.5049146 H -5.940568e-7 Z" />
    <path
       style="fill:#022135;fill-opacity:1;stroke:none;stroke-width:0.0495089"
       d="m 3.3561521,6.4305673 c -0.1215193,0.057308 -0.1367081,0.2086059 -0.038577,0.2984925 0.1070287,0.098039 0.2938105,0.1183647 0.4315546,0.1414634 0.7075463,0.1186505 1.4333767,0.1569832 2.1482741,0.188291 0.565456,0.024763 1.1636717,0.091398 1.7290981,0.037589 0.4446762,-0.042317 0.874849,-0.157573 1.3099181,-0.2542013 0.6161331,-0.1368409 1.231474,-0.2769381 1.846993,-0.4162142 0.418964,-0.0948 0.82917,-0.2098994 1.244426,-0.3180403 0.154082,-0.040124 0.436792,-0.069131 0.559629,-0.1712601 0.177731,-0.1477704 -0.08603,-0.2517835 -0.205953,-0.2527763 0.0563,-0.072957 0.165261,-0.1145383 0.190798,-0.209588 0.02905,-0.108118 -0.07183,-0.1841753 -0.07251,-0.2881829 -0.0031,-0.4763939 0.01127,-0.9036606 -0.262382,-1.3230224 0.110554,-0.058018 0.109702,-0.4615255 -0.0133,-0.5127292 -0.09889,-0.041167 -0.277244,0.015167 -0.379678,0.033101 -0.170152,0.029793 -0.418474,0.035898 -0.589463,0.013776 C 11.127827,3.3808157 10.980553,3.2525827 10.862009,3.1991412 10.607771,3.0845276 10.312331,2.9949804 10.036755,2.9519234 9.3676569,2.8473806 8.6501443,2.8543856 7.9801804,2.9424832 7.715607,2.9772734 7.4415956,3.0030922 7.1942291,3.1089628 6.9313718,3.2214598 6.7169583,3.4024237 6.4737709,3.5470386 6.4040482,3.588501 6.3200412,3.5976119 6.2511342,3.6421696 6.1697519,3.6947946 6.1549386,3.8114392 6.0674516,3.848129 5.8632222,3.9337794 5.5915424,3.9407278 5.3734366,3.9716526 5.08328,4.0127917 4.8136445,4.1027243 4.5350828,4.1848475 4.4034138,4.2236659 4.2682648,4.2346421 4.1421061,4.2939481 3.8966707,4.4093277 3.6967296,4.6412096 3.5264429,4.8453584 c -0.051875,0.06219 -0.1402239,0.1034085 -0.1663146,0.183591 -0.076046,0.2336485 0.00213,0.5417864 -0.017833,0.785954 -0.010452,0.127773 -0.1361695,0.2683521 -0.1228862,0.3929773 0.00991,0.092941 0.083066,0.1533704 0.1367431,0.2226866 m 8.1477198,-2.6329449 -0.392978,0.1303348 -0.17029,0.056693 -0.144091,-0.069135 V 3.902416 L 11.202585,3.83692 C 11.00302,3.3745133 10.431524,3.2627222 9.9843589,3.2044683 9.8541661,3.187507 9.722824,3.1561234 9.5913829,3.1557596 9.7213923,3.0045014 10.000088,3.0699032 10.16775,3.1115704 c 0.357326,0.088804 0.714706,0.2103259 1.02174,0.4177808 0.114153,0.07713 0.203358,0.1859723 0.314382,0.2682712 M 9.7616736,3.3260498 9.5913829,3.7059277 h -0.0131 c 0.00332,-0.1409383 0.1032609,-0.25473 0.1571908,-0.3798779 h 0.0262 m 0.6811583,0.196489 H 10.11535 l -0.10479,-0.196489 c 0.170503,0 0.383471,-0.00651 0.432272,0.196489 M 7.9146806,3.3784466 c -0.014421,0.082748 0.010991,0.1115223 0.091695,0.1309922 -0.026106,0.090618 -0.098596,0.2723339 -0.1782701,0.3271678 -0.071743,0.049371 -0.198322,0.020591 -0.280199,0.030252 -0.2974794,0.0351 -0.6047815,-0.00375 -0.9038449,-0.00375 C 6.7453172,3.7523161 6.8968886,3.6693212 7.0239383,3.5905459 7.3159418,3.4094898 7.5645068,3.2739621 7.9146806,3.3784416 M 9.3555963,3.3391435 C 9.3386496,3.3978603 9.278774,3.5640272 9.2101291,3.5749702 9.1219243,3.5890336 8.9533368,3.4244874 8.8971246,3.3653423 L 9.3555963,3.3391433 M 11.909944,3.548731 V 3.57493 H 11.372876 V 3.548731 h 0.537068 m -3.6284827,0.026199 -0.0262,0.1309921 h -0.0131 l 0.0393,-0.1309921 m 2.2006707,0.039297 c -0.06573,0.058132 -0.07481,0.095998 -0.170291,0.078595 l 0.0131,-0.1047935 c 0.06135,-0.00263 0.110608,-0.020822 0.157191,0.026198 M 10.246345,3.5880292 V 3.6928227 H 10.14155 l -0.0131,-0.1047935 h 0.117895 M 6.4606709,3.705922 6.2641802,3.8631129 C 6.2778942,3.761371 6.3668021,3.7199921 6.4606709,3.705922 m 5.3575821,0 v 0.013099 h -0.07859 l 0.07859,-0.013099 m -1.519512,0.1702903 v 0.026198 l -0.5239674,0.078595 0.1571908,-0.054104 0.3667766,-0.050689 m 0.563268,0.1309921 v 0.026199 C 10.484404,4.1883225 10.027204,4.3536218 9.6175828,4.3870829 v 0.013099 l 0.5632632,-0.11201 0.838353,-0.1630737 -0.209591,0.065496 v 0.013099 c 0.03397,-0.00439 0.131174,-0.039989 0.154888,-0.00545 0.03734,0.054379 -0.131896,0.057655 -0.154888,0.057845 v 0.026199 l 0.222691,-0.039298 c 0,0.3673793 -0.09701,0.6798129 -0.17029,1.034839 h 0.0131 c 0.06496,-0.280661 0.166627,-0.5348455 0.194263,-0.8252522 0.0066,-0.069654 -0.03012,-0.2793504 0.02374,-0.3273079 0.03888,-0.034618 0.138313,-0.034166 0.188065,-0.041177 0.140035,-0.019737 0.278556,-0.04866 0.419176,-0.064447 0.103331,-0.0116 0.379046,-0.09184 0.463225,-0.017637 0.0573,0.050508 0.08329,0.1584411 0.108969,0.2278827 0.08298,0.2244484 0.246763,0.7230975 -0.06132,0.8252504 0,-0.1809498 -0.0719,-0.6826092 -0.353682,-0.6215861 -0.297979,0.064531 -0.351156,0.5921269 -0.385387,0.8311741 -0.0091,0.063618 0.01164,0.2295672 -0.04169,0.2727893 -0.04441,0.035991 -0.146625,0.033523 -0.201684,0.042644 -0.157166,0.026033 -0.315317,0.049107 -0.471572,0.080161 C 10.179553,5.775135 9.6062994,5.9123588 9.0281154,6.0244839 9.0281647,5.914511 9.0490033,5.8065466 9.0537997,5.6970037 9.0699902,5.3272578 8.9204976,4.6650073 8.4255522,4.7083856 8.2305167,4.7254788 8.1437382,4.8719402 7.9895381,4.961152 7.8861983,5.020939 7.6922933,5.0139933 7.5741064,5.0289431 c 0.1009031,0.095379 0.1860681,0.075623 0.314379,0.065496 -0.082377,0.2263667 -0.1702591,0.4252273 -0.2060297,0.668061 -0.012075,0.081969 0.00456,0.2956823 -0.043221,0.3572464 -0.031096,0.040067 -0.099122,0.037911 -0.1358918,0.07797 C 7.4044439,6.3054561 7.3413693,6.4511504 7.2073243,6.523357 7.0192942,6.6246449 6.758215,6.6008506 6.5523666,6.6008506 c -0.3085943,0 -0.6388091,0.00739 -0.9431448,-0.047363 C 5.381794,6.5125717 5.1683863,6.4041935 4.9411594,6.3669642 4.5242799,6.2986624 4.0982119,6.3154851 3.6836444,6.2577947 3.6008852,6.2462774 3.3175849,6.0035941 3.4740477,5.9458889 c 0.015888,0.1026913 0.1107124,0.1374306 0.1959218,0.1753238 0.038151,0.016966 0.066322,0.067148 0.1067261,0.073653 0.068763,0.01107 0.1699005,-0.07005 0.2344203,-0.092241 0.090324,-0.031066 0.2334591,-0.022115 0.3274809,-0.00871 0.2280533,0.032509 0.4506259,0.070788 0.6811583,0.086591 0.1419966,0.00973 0.3202835,-0.00776 0.456724,0.031534 0.074451,0.021441 0.053192,0.1322527 0.1333176,0.158818 0.1133156,0.037571 0.2487666,0.020408 0.3662025,0.020408 0.2324238,0 0.4766911,0.00475 0.7073583,-0.022459 0.097354,-0.011487 0.2072685,0.015864 0.3012809,-0.014879 0.036126,-0.011813 0.080972,-0.033311 0.096889,-0.070205 C 7.1054304,6.2283284 7.086839,6.1473755 7.0800919,6.089981 7.0658777,5.9694985 7.12154,5.784399 6.997516,5.7082528 6.92548,5.6640263 6.7899393,5.6968817 6.7095763,5.7063587 6.5249285,5.7281457 6.3321012,5.7414182 6.1463095,5.7493962 l 0.0131,0.5894653 c -0.1309707,0 -0.3816198,0.058358 -0.4963569,-0.00417 C 5.551162,6.2737236 5.5139712,5.9576852 5.5044463,5.8410892 c 0.045103,0.00369 0.1105931,0.00648 0.1404416,0.046019 0.078363,0.1037677 0.040271,0.3150967 0.2132399,0.3207593 L 5.8188273,5.7624968 C 5.3760957,5.7815094 4.9386749,5.7413987 4.4958071,5.6992253 4.2853207,5.6791808 4.0601934,5.6937252 3.8539446,5.6446045 3.8284228,5.7679289 3.8060494,5.9837834 3.6705539,6.0244812 l -0.01258,-0.5370681 0.046167,-0.1872099 0.1105089,0.020124 0.2488811,0.074411 1.1527354,0.079575 c 0,0.1037307 0.091928,0.2896753 0.2170011,0.1646099 0.04133,-0.041323 0.038062,-0.1229549 0.044979,-0.1777092 L 5.7664321,5.4481159 C 5.7459656,5.3333141 5.6331098,5.1016324 5.5283694,5.0423929 5.472172,5.0106078 5.3835566,5.0181619 5.3210563,5.0153252 5.1860016,5.0091955 5.0499507,4.9977133 4.9149844,4.9884705 4.6968732,4.9735334 4.4787175,4.9555119 4.2600219,4.9501525 4.1833964,4.9482733 4.100073,4.9215651 4.0242354,4.9439689 3.7699525,5.0190823 3.62406,5.2990419 3.6050588,5.5398116 H 3.5919582 C 3.5580398,5.5006256 3.5023223,5.4667787 3.4819697,5.4181784 3.3955174,5.2117065 3.5385088,4.9841514 3.6967538,4.8717514 l 0.091695,0.1309921 c 0.032692,-0.070022 0.073768,-0.1642788 0.1352582,-0.2134899 0.1493787,-0.1195493 0.4208415,-0.061594 0.5983006,-0.061594 0.3554441,0 0.7071163,0.026988 1.0610344,0.051225 0.1403519,0.00961 0.2943592,-0.0043 0.4322765,0.020356 0.112227,0.020062 0.2165764,0.073053 0.3274762,0.098709 -0.02222,0.04644 -0.084268,0.089039 -0.079684,0.144142 0.0046,0.055559 0.051722,0.1076093 0.1059334,0.1158922 0.164761,0.025175 0.4393722,-0.0072 0.6023254,-0.043675 0.1256644,-0.02813 0.2400894,-0.2217464 0.34077,-0.3021714 C 7.5315139,4.6369001 7.7614713,4.5191366 8.0194951,4.4132781 v -0.013099 c -0.4070985,0 -0.7623303,0.1133627 -1.1396321,0.2595081 C 6.7700767,4.7022129 6.6577662,4.7440034 6.5523861,4.7966931 6.4956091,4.8250798 6.4348322,4.8775661 6.3689954,4.8796456 6.2406036,4.8837006 6.1168466,4.7821306 5.9891187,4.7695649 5.6386598,4.7350879 5.2801623,4.7374988 4.9280796,4.7133877 4.6204317,4.6923194 4.2677303,4.6599927 3.9718403,4.7407592 4.0277161,4.6234875 4.192744,4.5501207 4.2993171,4.4829486 4.6448097,4.2651954 5.0284785,4.1313416 5.4389512,4.0988971 v 0.013099 L 5.137671,4.2167899 v 0.0131 L 5.7402322,4.0857977 V 4.072699 h -0.078596 v -0.0131 l 0.759754,-0.1042781 2.8949262,0.091179 0.1178956,1.1003347 h 0.0131 L 9.3687165,4.0465003 9.6568975,4.033401 c -0.011436,0.082837 0.00203,0.2325724 0.130273,0.2033316 0.089052,-0.020307 0.053187,-0.147587 0.1240989,-0.182328 0.072358,-0.035448 0.1781476,0.0054 0.2564906,-0.015212 0.16692,-0.043929 0.361881,-0.1635297 0.550178,-0.1194806 0.05347,0.01251 0.09715,0.060393 0.144091,0.08749 M 6.1201096,4.7014609 v 0.013099 L 6.5916813,4.5574097 7.5086255,4.2711681 8.739954,4.0726988 c -0.068333,-0.028674 -0.1621821,-0.0131 -0.2357865,-0.0131 -0.1849653,0 -0.3551125,0.00678 -0.5370669,0.041876 -0.6458063,0.1245738 -1.2374535,0.363506 -1.846991,0.5999861 M 6.6047813,4.2560877 7.3383395,4.1381941 C 7.2029923,4.027404 6.9071373,4.1193461 6.7619721,4.1720843 6.7065815,4.1922082 6.639007,4.2059233 6.6047813,4.2560877 M 10.796533,4.203695 v 0.039297 h 0.01309 L 10.796533,4.203695 M 7.7968112,4.5835721 v 0.013099 l 0.3274789,0.04506 0.3012816,-0.097264 0.3405768,0.052205 C 8.5854061,4.1857529 8.0818465,4.4336281 7.7968112,4.5835721 M 9.5652018,4.4001832 v 0.013099 h 0.039301 l -0.039301,-0.013099 m -0.043662,0.017464 0.00873,0.00436 -0.00873,-0.00436 m 2.1788372,1.2662594 h 0.0131 l 0.09169,0.1309922 0.0524,-0.2881823 c 0.0443,0.049673 0.06234,0.1085844 0.02829,0.1702894 -0.01861,0.033743 -0.07331,0.082094 -0.05165,0.1253006 0.0263,0.052461 0.09776,0.015421 0.127584,-0.0104 0.07369,-0.063794 0.110192,-0.1666645 0.13156,-0.2589924 l -0.144091,-0.1178936 -0.0131,0.091696 h -0.0131 l -0.02619,-0.078596 -0.0524,0.026198 -0.0131,-0.052397 c 0.14574,-0.04315 0.111341,-0.2542728 0.0131,-0.3274806 L 11.88377,4.93725 h 0.0131 l -0.0131,0.1571909 0.10479,-0.1309929 h 0.0131 l -0.0524,0.2357864 c 0.0533,-0.013978 0.128209,-0.026428 0.154592,-0.082538 0.05602,-0.1191188 -0.09997,-0.3657289 -0.206986,-0.4021337 v 0.052397 h -0.0131 l -0.0131,-0.078595 -0.14409,0.1702902 c 0.124238,-0.011835 0.103898,0.080244 0.07859,0.1702895 h -0.0131 l -0.0655,-0.1702895 -0.0393,0.1047934 h 0.0131 v -0.039298 h 0.0131 c 0.04049,0.1051411 -0.0069,0.2925419 0.130989,0.261985 l -0.0131,0.1571907 h -0.01309 C 11.781545,5.272447 11.759915,5.2311908 11.674169,5.2254338 v 0.026198 h 0.0524 c 0.0048,0.1130749 0.0016,0.1784594 -0.0655,0.2750844 -0.09218,-0.1917987 -0.03293,-0.5477123 0.05063,-0.7335573 0.07756,-0.1724903 0.243821,-0.2114509 0.338759,-0.026199 0.132813,0.2591645 0.130467,0.6332805 0.03374,0.9038468 -0.08169,0.2284988 -0.306548,0.2757308 -0.383832,0.013099 M 9.1722265,4.766961 c 0.074144,0.2177311 0.1858463,0.42042 0.2525546,0.6418624 0.025507,0.084661 0.04735,0.2229265 0.1312679,0.2709202 0.1085434,0.062074 0.31496,-0.01769 0.4283308,-0.04037 C 10.343924,5.5674499 10.719661,5.4517395 11.084715,5.4219227 V 5.4088234 C 10.729538,5.4117689 10.349909,5.4728801 9.9974797,5.5191765 9.8814161,5.5344219 9.6376099,5.59659 9.5395721,5.5210369 9.4508024,5.4526245 9.4278008,5.3263742 9.3964324,5.2254347 9.3509583,5.0791117 9.2825021,4.8760569 9.1722265,4.7669616 m 2.5019515,0.1964883 v 0.039297 h 0.0131 l -0.0131,-0.039297 M 8.3469773,4.9939639 C 8.5706986,4.9539437 8.712224,5.1465256 8.7864183,5.3302283 8.9053782,5.6247844 8.9003728,5.9940247 8.7791009,6.2864724 8.7215318,6.4252916 8.6237219,6.5773388 8.4648682,6.6078175 8.2510487,6.648845 8.1012743,6.4505445 8.0334423,6.2733731 7.9178647,5.9714768 7.9139984,5.5873927 8.0497366,5.2909311 8.1066761,5.1665754 8.2009662,5.0200837 8.3469773,4.9939639 M 5.5437476,5.068244 C 5.4623546,5.1737011 5.2427585,5.3446528 5.1114717,5.3771375 4.9398686,5.4195966 4.6830655,5.3717586 4.5089084,5.3488864 4.4063459,5.3354211 4.1817936,5.368439 4.1140701,5.2748506 4.0755864,5.2216634 4.0779436,5.118723 4.0766312,5.0551447 h 0.0131 c 0.087037,0.2776612 0.493505,0.2424257 0.7335588,0.2486929 0.077838,0.00203 0.2539311,-0.014429 0.3012817,0.052589 h 0.0131 L 5.3079624,5.238534 V 5.225435 c -0.2622439,0 -0.5255765,-0.00474 -0.785954,-0.035558 C 4.3488415,5.1693784 4.232906,5.1830126 4.1552269,5.0027473 l 0.1703002,0.1235439 0.6418538,0.04897 0.3743165,0.019265 L 5.5437476,5.068244 M 11.818274,5.055145 V 5.13374 h -0.0131 l 0.0131,-0.078595 M 8.0194958,5.4874178 h 0.0131 l 0.039295,-0.1178923 c 0.1190145,0.1020328 0.083635,0.2320982 0.0655,0.3667774 h 0.104791 l -0.0131,0.052397 h 0.0131 C 8.3200346,5.5942902 8.4112052,5.8778459 8.3062566,5.894525 8.2625552,5.9014696 8.2397113,5.8224621 8.2123871,5.799232 8.161611,5.7560712 8.0947442,5.7625082 8.0325957,5.7625015 v 0.026199 c 0.2565895,0.028915 -0.02615,0.3197995 0,0.4191759 l 0.196486,-0.18339 c -0.010758,0.027294 -0.020283,0.04875 -0.014025,0.078656 0.013223,0.063198 0.07859,0.4471 -0.083834,0.2613373 -0.013551,-0.0155 -0.024472,-0.034008 -0.034696,-0.051791 -0.017006,-0.029575 -0.028333,-0.059158 -0.03773,-0.091715 H 8.0456957 C 8.0664649,6.337506 8.1462631,6.4713844 8.2552816,6.5222569 8.3421054,6.372796 8.3770988,6.1549032 8.2945822,5.998288 8.5317842,6.0679049 8.5552469,5.6274691 8.3338774,5.5922114 8.4442332,5.4544384 8.4262309,5.2304293 8.3862725,5.0682427 8.18285,5.1195259 8.0802092,5.3011408 8.0194958,5.4874178 M 12.316041,5.0682427 c -0.02356,0.064649 -0.0669,0.2050077 0,0.248885 l -0.0786,0.078596 0.0524,-0.3274807 h 0.02619 M 8.4255624,5.094442 c 0,0.1213276 0.015774,0.2444551 6.943e-4,0.3645535 -0.00382,0.030431 -0.040587,0.09585 -0.00566,0.1183283 C 8.472921,5.6109949 8.5442041,5.5091549 8.5650771,5.4743185 8.6658716,5.3061051 8.6771551,5.1075192 8.4255953,5.0944414 m 3.6808817,0.065495 c -0.03011,0.017594 -0.06207,0.032684 -0.09146,0.051447 -0.151388,0.096659 0.05194,0.217276 0.07836,0.3284312 h 0.0131 V 5.1599368 m -6.7984924,0.052398 0.0131,0.013099 -0.0131,-0.013099 m 2.829429,0.065495 c 0.052242,0.00304 0.138036,-0.012168 0.1693997,0.042947 0.051094,0.089779 -0.098329,0.198409 0.027087,0.2714345 v 0.013099 L 8.2815045,5.6315093 8.1374136,5.2778298 m 0.5370675,0 C 8.631226,5.370302 8.593955,5.4637462 8.5434909,5.5529142 c -0.019561,0.034557 -0.057198,0.085676 -0.043122,0.1279901 0.029962,0.090057 0.2475937,0.00629 0.2872751,-0.040612 C 8.851026,5.5653713 8.736769,5.3313657 8.6744814,5.2778294 m 3.7070826,0.0131 c 0.02236,0.037926 0.07126,0.097335 0.06521,0.1435759 -0.01077,0.082304 -0.202793,0.1800818 -0.274804,0.1970036 4.72e-4,-0.1341157 0.107964,-0.258379 0.209591,-0.3405795 m -0.576368,0.078596 0.0131,0.026198 h -0.0262 l 0.0131,-0.026198 m -0.0393,0.104793 c 0.03687,0.076626 0.03707,0.1808826 0.01309,0.2619844 h -0.02619 l -0.0393,-0.091694 -0.0131,0.026198 h -0.01309 c 0.01208,-0.084236 0.0099,-0.1362188 0.07859,-0.1964887 m 0.183386,0.065496 -0.0131,0.013099 0.0131,-0.013099 m -8.4489919,0.013099 c 0.049098,0.04286 0.079199,0.077236 0.065495,0.1440915 -0.054895,-0.028543 -0.089175,-0.082786 -0.065495,-0.1440915 m 8.1695469,0.021831 -0.0044,0.00873 0.0044,-0.00873 m -8.0647566,0.00437 v 0.091694 h -0.013095 l 0.013095,-0.091694 m 8.0778566,0.03493 -0.0044,0.00873 0.0044,-0.00873 m -0.296919,0.017466 v 0.0131 l -0.510867,0.065496 c 0.146709,-0.078574 0.348858,-0.078596 0.510867,-0.078596 M 8.8054754,5.6708072 C 8.7339699,5.704249 8.5305871,5.743139 8.5259679,5.8412995 8.5185818,5.9982496 8.8268937,6.0311205 8.7399803,6.207876 8.6950805,6.1213219 8.6150645,6.0434049 8.5172944,6.024486 l 0.039294,0.3929773 H 8.5434943 C 8.5425035,6.2966551 8.502694,6.0728854 8.3601036,6.0506845 L 8.4397886,6.2995697 8.2815078,6.5484555 C 8.6980961,6.6805141 8.9417042,5.9866164 8.8054754,5.6708072 m -5.2003903,0.026197 v 0.039297 h -0.0131 l 0.0131,-0.039297 m -0.00436,0.061129 -0.00436,0.00873 0.00436,-0.00873 M 6.290432,5.8803938 c 0.084155,-0.03567 0.1723008,-0.034295 0.2619865,-0.04047 0.060786,-0.00419 0.122742,-0.00838 0.1833853,-0.014151 0.06355,-0.00605 0.147002,-0.028012 0.2088088,-0.00297 0.06554,0.026552 0.039389,0.087309 -0.01257,0.1107973 -0.1263521,0.057111 -0.359489,0.012353 -0.4975195,0.01229 -0.065847,-2.9e-5 -0.1223565,0.00609 -0.1440909,-0.065496 m 4.8991098,-0.065496 v 0.013099 c -0.178623,0.01459 -0.36194,0.073867 -0.537073,0.1123341 C 10.290272,6.0198856 9.9273418,6.0961357 9.5652342,6.1761139 9.4344118,6.20501 9.3037829,6.2346428 9.1722575,6.2602597 9.1157285,6.2712694 9.0535948,6.2846815 9.0150667,6.2340705 9.2147308,6.2177621 9.4230502,6.1429013 9.6176347,6.0948813 10.13981,5.9660164 10.65045,5.8148953 11.189542,5.8148953 m -2.9342287,0.1178929 0.039295,0.065497 -0.065496,0.026198 0.026201,-0.091694 m 0.3143809,0.484671 v 0.039298 h -0.0131 z"
       id="path1-8-0-5" />
    <path
       id="path17-5-2"
       style="fill:#022135;fill-opacity:1;fill-rule:nonzero;stroke:none;stroke-width:0.0237641"
       d="m 8.4970334,1.3243666 c -1.9031682,0 -3.69233,0.7411534 -5.0379709,2.0867936 C 2.4769406,4.3935538 1.8167369,5.6120936 1.5318411,6.9388708 H 0.80203599 V 7.1171011 H 1.4959519 c -3.4e-6,1.82e-5 3.3e-6,5.19e-5 0,6.74e-5 H 2.0324181 C 2.6501534,4.1142994 5.3140564,1.8493092 8.4970334,1.8493092 c 3.1829756,0 5.8466526,2.2649902 6.4643356,5.2678593 h 0.536467 c -4e-6,-1.75e-5 3e-6,-5.12e-5 0,-6.74e-5 h 0.632022 V 6.9388708 H 15.461946 C 15.177103,5.6121684 14.517021,4.3935241 13.534725,3.4111602 12.189084,2.06552 10.4002,1.3243666 8.4970334,1.3243666 Z" />
  </g>
</svg>
